<svg width="335" height="121" viewBox="0 0 335 121" fill="none" xmlns="http://www.w3.org/2000/svg">
<rect x="0.5" y="0.5" width="334" height="120" rx="7.5" fill="url(#paint0_linear_28_3583)" stroke="#DDDDDD"/>
<mask id="mask0_28_3583" style="mask-type:alpha" maskUnits="userSpaceOnUse" x="0" y="0" width="335" height="121">
<rect x="0.5" y="0.5" width="334" height="120" rx="7.5" fill="url(#paint1_linear_28_3583)" stroke="#DDDDDD"/>
</mask>
<g mask="url(#mask0_28_3583)">
<path fill-rule="evenodd" clip-rule="evenodd" d="M80.2922 67.9648C80.1246 67.1829 79.7362 66.5085 78.9177 66.0881C78.2114 65.7253 76.6038 65.1548 75.8115 65.1054C74.1789 65.0036 73.4466 66.3915 71.9062 66.9279C70.4962 67.4191 70.5505 66.5503 69.4132 65.8295C67.377 64.5383 65.3659 65.1331 63.993 67.0792C63.993 67.0792 59.902 63.9175 56.7455 68.3915C56.7455 68.3915 53.5242 65.9227 51.1294 70.2345C50.0546 72.1703 51.1044 77.0517 51.3826 79.1647C52.0771 84.4384 53.306 89.8873 55.0649 94.9136C55.4148 95.9138 57.2445 98.2425 57.1957 99.2219C56.9444 104.268 56.6931 109.315 56.4417 114.362C56.3188 116.828 55.686 119.825 56.0476 122.273C56.2284 123.499 55.8819 123.238 57.2936 124.005C59.8641 125.402 63.1556 125.962 66.0436 126.074C68.5737 126.172 71.1215 125.862 73.5473 125.131C74.8388 124.742 76.2611 124.062 76.5917 122.755C76.7562 122.104 76.6098 121.422 76.5112 120.759C75.6 114.628 73.8432 108.733 72.5197 102.581L79.6871 92.0418L79.6877 92.0147C79.8028 87.9415 79.9179 83.8686 80.033 79.7954C80.1086 77.1147 80.1846 74.4334 80.2602 71.7524C80.2934 70.5802 80.5459 69.1488 80.2922 67.9648" fill="#EA8C7A"/>
<path fill-rule="evenodd" clip-rule="evenodd" d="M88.886 185.982L76.2306 112.664L79.342 112.463V107.411H49.0345L50.8268 114.308L53.3343 114.146L43.1885 189.968L46.9998 233.895H99.7342L88.886 185.982" fill="#222222"/>
<path fill-rule="evenodd" clip-rule="evenodd" d="M107.331 85.1266L28.4797 70.8877C26.8455 70.5924 25.7513 69.005 26.0488 67.3596L34.9612 18.0042C35.2583 16.3589 36.8382 15.2541 38.4727 15.5492L117.324 29.788C118.958 30.0834 120.053 31.6708 119.755 33.3158L110.843 82.6716C110.546 84.3169 108.966 85.4216 107.331 85.1266" fill="url(#paint2_linear_28_3583)"/>
<mask id="mask1_28_3583" style="mask-type:alpha" maskUnits="userSpaceOnUse" x="26" y="15" width="94" height="71">
<path fill-rule="evenodd" clip-rule="evenodd" d="M107.331 85.1266L28.4797 70.8877C26.8455 70.5924 25.7513 69.005 26.0488 67.3596L34.9612 18.0042C35.2583 16.3589 36.8382 15.2541 38.4727 15.5492L117.324 29.788C118.958 30.0834 120.053 31.6708 119.755 33.3158L110.843 82.6716C110.546 84.3169 108.966 85.4216 107.331 85.1266" fill="url(#paint3_linear_28_3583)"/>
</mask>
<g mask="url(#mask1_28_3583)">
<circle cx="32.0001" cy="63.0001" r="24" transform="rotate(150 32.0001 63.0001)" stroke="url(#paint4_linear_28_3583)" stroke-opacity="0.36" stroke-width="6"/>
<circle cx="113.883" cy="36.8825" r="24" transform="rotate(150 113.883 36.8825)" stroke="url(#paint5_linear_28_3583)" stroke-opacity="0.36" stroke-width="6"/>
</g>
<path fill-rule="evenodd" clip-rule="evenodd" d="M110.34 34.1185L110.782 34.1992L110.862 33.7618L110.42 33.6812L110.34 34.1185Z" fill="white"/>
<path fill-rule="evenodd" clip-rule="evenodd" d="M110.518 35.6482L110.959 35.7288L111.224 34.2789L110.782 34.1982L110.518 35.6482Z" fill="white"/>
<path fill-rule="evenodd" clip-rule="evenodd" d="M109.832 36.9037L110.273 36.9842L110.602 35.1801L110.161 35.0996L109.832 36.9037Z" fill="white"/>
<path fill-rule="evenodd" clip-rule="evenodd" d="M109.347 39.5594L109.788 39.64L110.111 37.8696L109.67 37.7891L109.347 39.5594Z" fill="white"/>
<path fill-rule="evenodd" clip-rule="evenodd" d="M111.4 35.8098L111.842 35.8904L112.107 34.4405L111.665 34.3599L111.4 35.8098Z" fill="white"/>
<path fill-rule="evenodd" clip-rule="evenodd" d="M110.801 38.9694L111.242 39.05L111.567 37.273L111.125 37.1924L110.801 38.9694Z" fill="white"/>
<path fill-rule="evenodd" clip-rule="evenodd" d="M112.023 34.9007L112.465 34.9814L112.629 34.0797L112.188 33.999L112.023 34.9007Z" fill="white"/>
<path fill-rule="evenodd" clip-rule="evenodd" d="M113.178 39.5307L113.62 39.6113L113.75 38.8975L113.309 38.8169L113.178 39.5307Z" fill="white"/>
<path fill-rule="evenodd" clip-rule="evenodd" d="M111.761 36.3339L112.203 36.4146L112.286 35.963L111.844 35.8823L111.761 36.3339Z" fill="white"/>
<path fill-rule="evenodd" clip-rule="evenodd" d="M111.607 37.2294L112.049 37.3101L112.131 36.8585L111.689 36.7778L111.607 37.2294Z" fill="white"/>
<path fill-rule="evenodd" clip-rule="evenodd" d="M110.693 37.0624L111.135 37.1431L111.217 36.6915L110.775 36.6108L110.693 37.0624Z" fill="white"/>
<path fill-rule="evenodd" clip-rule="evenodd" d="M108.699 37.6294L109.667 37.806L109.749 37.3543L108.781 37.1777L108.699 37.6294Z" fill="white"/>
<path fill-rule="evenodd" clip-rule="evenodd" d="M111.89 38.1944L112.933 38.3848L113.018 37.9233L111.975 37.7329L111.89 38.1944Z" fill="white"/>
<path fill-rule="evenodd" clip-rule="evenodd" d="M113.369 38.4814L114.241 38.6406L114.324 38.189L113.451 38.0298L113.369 38.4814Z" fill="white"/>
<path fill-rule="evenodd" clip-rule="evenodd" d="M111.057 37.5655L111.974 37.7328L112.051 37.3104L111.134 37.1431L111.057 37.5655Z" fill="white"/>
<path fill-rule="evenodd" clip-rule="evenodd" d="M110.313 36.5266L111.688 36.7774L111.768 36.3349L110.394 36.084L110.313 36.5266Z" fill="white"/>
<path fill-rule="evenodd" clip-rule="evenodd" d="M108.537 38.4972L110.406 38.8382L110.487 38.3957L108.618 38.0547L108.537 38.4972Z" fill="white"/>
<path fill-rule="evenodd" clip-rule="evenodd" d="M115.116 38.8074L115.555 38.8875L115.636 38.4448L115.197 38.3647L115.116 38.8074Z" fill="white"/>
<path fill-rule="evenodd" clip-rule="evenodd" d="M114.435 40.0485L114.873 40.1286L115.114 38.8071L114.676 38.7271L114.435 40.0485Z" fill="white"/>
<path fill-rule="evenodd" clip-rule="evenodd" d="M114.157 39.089L114.595 39.169L114.676 38.7265L114.237 38.6465L114.157 39.089Z" fill="white"/>
<path fill-rule="evenodd" clip-rule="evenodd" d="M105.994 37.1188L106.455 37.2028L106.536 36.7603L106.075 36.6763L105.994 37.1188Z" fill="white"/>
<path fill-rule="evenodd" clip-rule="evenodd" d="M107.779 37.444L108.239 37.528L108.32 37.0855L107.859 37.0015L107.779 37.444Z" fill="white"/>
<path fill-rule="evenodd" clip-rule="evenodd" d="M107.254 37.8055L108.623 38.0553L108.704 37.6126L107.335 37.3628L107.254 37.8055Z" fill="white"/>
<path fill-rule="evenodd" clip-rule="evenodd" d="M110.487 38.3953L111.809 38.6366L111.89 38.1939L110.567 37.9526L110.487 38.3953Z" fill="white"/>
<path fill-rule="evenodd" clip-rule="evenodd" d="M112.357 38.7367L113.734 38.9881L113.815 38.5454L112.438 38.2939L112.357 38.7367Z" fill="white"/>
<path fill-rule="evenodd" clip-rule="evenodd" d="M107.172 38.2476L107.614 38.3283L107.695 37.8858L107.253 37.8052L107.172 38.2476Z" fill="white"/>
<path fill-rule="evenodd" clip-rule="evenodd" d="M106.683 35.8721L106.684 35.8723L107.111 33.5283L109.456 33.9561L109.028 36.3001L106.684 35.8723L106.684 35.8727L106.683 35.8725L106.683 35.8721ZM106.161 36.2347L109.39 36.8239L109.98 33.5907L106.751 33.0015L106.161 36.2347Z" fill="white"/>
<path fill-rule="evenodd" clip-rule="evenodd" d="M107.206 35.5095L108.668 35.7763L108.935 34.3171L107.473 34.0503L107.206 35.5095Z" fill="white"/>
<path fill-rule="evenodd" clip-rule="evenodd" d="M113.014 37.0272L113.014 37.0273L113.442 34.6833L115.787 35.1112L115.359 37.4552L113.014 37.0273L113.014 37.0277L113.014 37.0277L113.014 37.0272ZM112.491 37.3894L115.72 37.9787L116.31 34.7456L113.081 34.1562L112.491 37.3894Z" fill="white"/>
<path fill-rule="evenodd" clip-rule="evenodd" d="M113.536 36.6653L114.998 36.9321L115.265 35.4728L113.803 35.2061L113.536 36.6653Z" fill="white"/>
<mask id="mask2_28_3583" style="mask-type:alpha" maskUnits="userSpaceOnUse" x="105" y="38" width="11" height="7">
<path fill-rule="evenodd" clip-rule="evenodd" d="M106.051 41.8408L107.513 42.1076L107.779 40.6483L106.317 40.3815L106.051 41.8408ZM105.528 42.2035L105.529 42.2036L105.529 42.2032L107.873 42.631L108.301 40.287L105.957 39.8592L105.529 42.2032L105.528 42.203L105.528 42.2035ZM105.005 42.565L108.234 43.1543L108.824 39.9211L105.595 39.3318L105.005 42.565ZM106.213 38.5307L106.224 38.5327L106.143 38.9755L108.381 39.3838L108.462 38.9411L108.014 38.8594L108.095 38.417L107.61 38.3285L107.529 38.771L106.659 38.6121L106.739 38.1696L105.833 38.0042L105.752 38.4467L106.213 38.5307ZM115.141 39.7153L114.955 39.6814L114.956 39.6775L114.517 39.5975L114.435 40.0483L114.873 40.1283L114.795 40.5565L115.236 40.6369L115.396 39.7617L115.141 39.7153ZM114.609 41.5869L114.607 41.5866L114.686 41.1539L114.248 41.0738L114.009 42.3817L113.585 42.3045L113.505 42.7469L114.369 42.9046L114.288 43.3473L114.726 43.4273L114.888 42.5421L114.448 42.4618L114.527 42.0291L114.967 42.1094L115.048 41.667L114.609 41.5869ZM113.345 43.6298L113.784 43.7098L113.865 43.2671L113.426 43.1871L113.345 43.6298ZM114.127 44.2295L114.566 44.3096L114.646 43.8671L114.208 43.7871L114.127 44.2295ZM112.087 40.5049L112.529 40.5856L112.606 40.166L112.164 40.0853L112.087 40.5049ZM111.737 42.424L112.179 42.5047L112.26 42.0622L111.818 41.9816L111.737 42.424ZM113.224 41.7812L113.415 40.7389L113.856 40.8195L113.933 40.3999L113.049 40.2386L112.969 40.6775L112.527 40.5969L112.451 41.0165L112.892 41.0971L112.782 41.7005L112.341 41.6199L112.26 42.0624L112.702 42.143L112.781 41.7064L113.223 41.7871L113.144 42.2236L113.585 42.3043L113.666 41.8618L113.224 41.7812ZM113.143 42.2264L112.701 42.1457L112.541 43.0257L112.099 42.9451L112.019 43.3856L112.46 43.4663L112.379 43.9109L112.821 43.9915L112.982 43.109L113.424 43.1896L113.505 42.7469L113.063 42.6663L113.143 42.2264ZM113.572 39.874L113.65 39.4504L113.208 39.3697L113.207 39.3737L112.765 39.2931L112.689 39.7128L113.572 39.874ZM110.228 42.1678L110.668 42.2482L110.751 41.7929L110.311 41.7125L110.228 42.1678ZM111.708 39.1328L112.149 39.2134L111.997 40.0467L111.556 39.9661L111.556 39.9615L111.555 39.9613L111.476 40.3933L111.906 40.4717L111.716 41.5116L110.832 41.3502L110.752 41.7896L111.211 41.8733L111.127 42.3329L110.668 42.2492L110.51 43.1125L110.952 43.1931L111.033 42.7504L111.475 42.831L111.394 43.2738L110.956 43.1939L110.876 43.6364L109.987 43.4742L110.068 43.0317L110.068 43.0318L110.149 42.5903L109.722 42.5124L109.561 43.3964L108.668 43.2335L108.749 42.791L109.199 42.8733L109.358 42.0047L109.798 42.085L109.88 41.6337L109.001 41.4733L109.082 41.0308L109.963 41.1917L109.883 41.6329L110.309 41.7108L110.39 41.2695L109.963 41.1917L110.044 40.7489L110.935 40.9117L111.204 39.4426L111.42 39.4821L111.42 39.4814L111.637 39.521L111.708 39.1328ZM110.801 38.9694L111.243 39.05L111.256 38.9784L110.814 38.8978L110.801 38.9694ZM109.188 40.4311L109.629 40.5116L109.708 40.0823L109.266 40.0017L109.188 40.4311ZM109.428 39.1166L108.984 39.0355L109.065 38.593L109.509 38.6742L109.51 38.6715L109.951 38.7521L109.789 39.6399L110.213 39.7173L110.292 39.2841L110.734 39.3647L110.574 40.2403L109.708 40.0823L109.789 39.6399L109.348 39.5593L109.428 39.1166V39.1166Z" fill="white"/>
</mask>
<g mask="url(#mask2_28_3583)">
<path fill-rule="evenodd" clip-rule="evenodd" d="M106.051 41.8408L107.513 42.1076L107.779 40.6483L106.317 40.3815L106.051 41.8408ZM105.528 42.2035L105.529 42.2036L105.529 42.2032L107.873 42.631L108.301 40.287L105.957 39.8592L105.529 42.2032L105.528 42.203L105.528 42.2035ZM105.005 42.565L108.234 43.1543L108.824 39.9211L105.595 39.3318L105.005 42.565ZM106.213 38.5307L106.224 38.5327L106.143 38.9755L108.381 39.3838L108.462 38.9411L108.014 38.8594L108.095 38.417L107.61 38.3285L107.529 38.771L106.659 38.6121L106.739 38.1696L105.833 38.0042L105.752 38.4467L106.213 38.5307ZM115.141 39.7153L114.955 39.6814L114.956 39.6775L114.517 39.5975L114.435 40.0483L114.873 40.1283L114.795 40.5565L115.236 40.6369L115.396 39.7617L115.141 39.7153ZM114.609 41.5869L114.607 41.5866L114.686 41.1539L114.248 41.0738L114.009 42.3817L113.585 42.3045L113.505 42.7469L114.369 42.9046L114.288 43.3473L114.726 43.4273L114.888 42.5421L114.448 42.4618L114.527 42.0291L114.967 42.1094L115.048 41.667L114.609 41.5869ZM113.345 43.6298L113.784 43.7098L113.865 43.2671L113.426 43.1871L113.345 43.6298ZM114.127 44.2295L114.566 44.3096L114.646 43.8671L114.208 43.7871L114.127 44.2295ZM112.087 40.5049L112.529 40.5856L112.606 40.166L112.164 40.0853L112.087 40.5049ZM111.737 42.424L112.179 42.5047L112.26 42.0622L111.818 41.9816L111.737 42.424ZM113.224 41.7812L113.415 40.7389L113.856 40.8195L113.933 40.3999L113.049 40.2386L112.969 40.6775L112.527 40.5969L112.451 41.0165L112.892 41.0971L112.782 41.7005L112.341 41.6199L112.26 42.0624L112.702 42.143L112.781 41.7064L113.223 41.7871L113.144 42.2236L113.585 42.3043L113.666 41.8618L113.224 41.7812ZM113.143 42.2264L112.701 42.1457L112.541 43.0257L112.099 42.9451L112.019 43.3856L112.46 43.4663L112.379 43.9109L112.821 43.9915L112.982 43.109L113.424 43.1896L113.505 42.7469L113.063 42.6663L113.143 42.2264ZM113.572 39.874L113.65 39.4504L113.208 39.3697L113.207 39.3737L112.765 39.2931L112.689 39.7128L113.572 39.874ZM110.228 42.1678L110.668 42.2482L110.751 41.7929L110.311 41.7125L110.228 42.1678ZM111.708 39.1328L112.149 39.2134L111.997 40.0467L111.556 39.9661L111.556 39.9615L111.555 39.9613L111.476 40.3933L111.906 40.4717L111.716 41.5116L110.832 41.3502L110.752 41.7896L111.211 41.8733L111.127 42.3329L110.668 42.2492L110.51 43.1125L110.952 43.1931L111.033 42.7504L111.475 42.831L111.394 43.2738L110.956 43.1939L110.876 43.6364L109.987 43.4742L110.068 43.0317L110.068 43.0318L110.149 42.5903L109.722 42.5124L109.561 43.3964L108.668 43.2335L108.749 42.791L109.199 42.8733L109.358 42.0047L109.798 42.085L109.88 41.6337L109.001 41.4733L109.082 41.0308L109.963 41.1917L109.883 41.6329L110.309 41.7108L110.39 41.2695L109.963 41.1917L110.044 40.7489L110.935 40.9117L111.204 39.4426L111.42 39.4821L111.42 39.4814L111.637 39.521L111.708 39.1328ZM110.801 38.9694L111.243 39.05L111.256 38.9784L110.814 38.8978L110.801 38.9694ZM109.188 40.4311L109.629 40.5116L109.708 40.0823L109.266 40.0017L109.188 40.4311ZM109.428 39.1166L108.984 39.0355L109.065 38.593L109.509 38.6742L109.51 38.6715L109.951 38.7521L109.789 39.6399L110.213 39.7173L110.292 39.2841L110.734 39.3647L110.574 40.2403L109.708 40.0823L109.789 39.6399L109.348 39.5593L109.428 39.1166V39.1166Z" fill="white"/>
</g>
<g filter="url(#filter0_d_28_3583)">
<path fill-rule="evenodd" clip-rule="evenodd" d="M45.4659 28.5559L39.0215 27.3922C38.7438 27.342 38.5576 27.0738 38.6078 26.7963L39.4337 22.2225C39.4838 21.9449 39.7522 21.7588 40.0297 21.8089L46.474 22.9726C46.7517 23.0227 46.9378 23.291 46.8877 23.5686L46.0618 28.1424C46.0117 28.4199 45.7435 28.606 45.4659 28.5559" fill="url(#paint6_linear_28_3583)"/>
</g>
<path fill-rule="evenodd" clip-rule="evenodd" d="M46.7788 24.166L46.8149 23.9656L43.1875 23.3105L43.3504 22.4086L43.1515 22.3726L42.9885 23.2745L39.3611 22.6195L39.3249 22.8199L42.9523 23.475L42.7971 24.3344L39.1697 23.6794L39.1335 23.8798L42.7609 24.5349L42.7596 24.5423L42.8677 24.554C42.9046 24.5585 43.7679 24.6574 43.7249 25.3337C43.7249 25.3357 43.7112 25.5306 43.537 25.6722C43.3506 25.8236 43.053 25.8663 42.6525 25.7986L38.9089 25.1227L38.8728 25.3231L42.5179 25.9812L42.3598 26.8568L38.7148 26.1985L38.6787 26.3989L42.3236 27.0572L42.1608 27.9591L42.3598 27.995L42.5226 27.0931L46.1324 27.745L46.1688 27.5446L42.5589 26.8927L42.7175 26.0142C43.1294 26.0681 43.4475 26.0062 43.6641 25.8304C43.8214 25.7026 43.8844 25.5452 43.9098 25.4447L46.4647 25.906L46.5007 25.7056L43.9274 25.241C43.9017 24.6827 43.3642 24.4368 42.9967 24.3674L43.1515 23.5109L46.7788 24.166" fill="#222222"/>
<path d="M66.9776 60.6128L67.5946 60.7155L64.9978 65.3492L64.4314 65.255L63.4846 60.0318L64.0915 60.1327L64.6938 63.5108C64.7632 63.8988 64.8074 64.2723 64.8262 64.6312C64.9677 64.2805 65.1337 63.935 65.3243 63.5948L66.9776 60.6128ZM69.6439 66.1221L69.6202 65.5776L69.5932 65.5731C69.3704 65.774 69.1599 65.9006 68.9617 65.9532C68.7662 66.0038 68.5313 66.0063 68.2571 65.9607C67.8907 65.8997 67.6187 65.7575 67.4411 65.5339C67.2657 65.3107 67.207 65.0249 67.2649 64.6765C67.389 63.9302 68.0509 63.6384 69.2504 63.8009L69.8809 63.885L69.9191 63.6558C69.9673 63.3658 69.9399 63.1418 69.8368 62.9837C69.7364 62.8238 69.549 62.721 69.2748 62.6754C68.9668 62.6242 68.6027 62.6607 68.1825 62.7848L68.0817 62.328C68.2803 62.2594 68.4921 62.2149 68.7172 62.1946C68.9446 62.1747 69.1673 62.1829 69.3853 62.2191C69.8259 62.2924 70.1356 62.4444 70.3143 62.6751C70.4953 62.9062 70.5499 63.2375 70.4782 63.6691L70.0586 66.1911L69.6439 66.1221ZM68.4452 65.5173C68.7936 65.5752 69.0826 65.5251 69.3122 65.367C69.544 65.2092 69.6885 64.9583 69.7457 64.6144L69.8012 64.2806L69.2376 64.2111C68.79 64.1528 68.4569 64.1691 68.2386 64.2598C68.0228 64.3486 67.8935 64.5223 67.8505 64.7808C67.8168 64.9831 67.8519 65.1472 67.9557 65.273C68.0617 65.3992 68.2249 65.4806 68.4452 65.5173ZM73.5268 62.9011C73.6909 62.9284 73.8359 62.9664 73.9618 63.015L73.7979 63.5214C73.6506 63.4622 73.5186 63.4229 73.4017 63.4035C73.1027 63.3538 72.8263 63.4325 72.5724 63.6397C72.3207 63.8474 72.1648 64.1321 72.1046 64.494L71.7748 66.4765L71.2151 66.3834L71.8298 62.6881L72.2917 62.7649L72.2419 63.46L72.2689 63.4645C72.446 63.2468 72.6421 63.0889 72.8571 62.9907C73.0721 62.8924 73.2953 62.8626 73.5268 62.9011ZM75.1745 63.2445L74.7757 65.6417C74.7256 65.9429 74.7568 66.1791 74.8692 66.3502C74.9817 66.5214 75.184 66.6313 75.4762 66.6799C75.8628 66.7442 76.1625 66.6855 76.3752 66.5037C76.5902 66.3223 76.7375 65.9923 76.8171 65.5135L77.1401 63.5714L77.6998 63.6645L77.0851 67.3599L76.6232 67.283L76.6248 66.7739L76.5944 66.7689C76.4495 66.9319 76.2667 67.0447 76.0461 67.1073C75.8277 67.1703 75.5882 67.1801 75.3274 67.1368C74.8779 67.062 74.5585 66.8991 74.3692 66.6482C74.1822 66.3977 74.1278 66.0375 74.2059 65.5677L74.608 63.1502L75.1745 63.2445ZM80.8041 67.9785L81.2017 65.588C81.2518 65.2868 81.2206 65.0506 81.1082 64.8794C80.9958 64.7083 80.7934 64.5984 80.5012 64.5498C80.1146 64.4855 79.814 64.5429 79.5994 64.722C79.3848 64.9011 79.2375 65.2312 79.1575 65.7122L78.835 67.6509L78.2753 67.5578L78.89 63.8625L79.3452 63.9382L79.3521 64.4591L79.3791 64.4636C79.524 64.3006 79.7081 64.1869 79.9313 64.1223C80.1549 64.0556 80.3938 64.0433 80.6477 64.0856C81.0928 64.1596 81.4098 64.3232 81.5987 64.5764C81.7879 64.8273 81.8433 65.1888 81.7648 65.6608L81.3638 68.0716L80.8041 67.9785ZM88.7474 66.7184C88.612 67.5321 88.2871 68.1179 87.7725 68.4758C87.2605 68.8318 86.5898 68.9409 85.7604 68.8029L84.3949 68.5758L85.2148 63.6464L86.7253 63.8977C87.4918 64.0252 88.0521 64.3367 88.4063 64.8322C88.7604 65.3277 88.8741 65.9564 88.7474 66.7184ZM88.1371 66.6377C88.2441 65.9948 88.1628 65.4835 87.8933 65.1037C87.6261 64.7243 87.1745 64.4817 86.5383 64.3759L85.7056 64.2374L85.0505 68.1755L85.7484 68.2916C86.4317 68.4052 86.9732 68.3232 87.3728 68.0455C87.7728 67.7655 88.0276 67.2963 88.1371 66.6377ZM91.6203 69.7776L91.5965 69.2332L91.5695 69.2287C91.3467 69.4295 91.1362 69.5562 90.9381 69.6087C90.7426 69.6594 90.5077 69.6619 90.2334 69.6163C89.8671 69.5553 89.5951 69.413 89.4174 69.1895C89.242 68.9663 89.1833 68.6804 89.2413 68.332C89.3654 67.5858 90.0272 67.2939 91.2268 67.4565L91.8573 67.5406L91.8954 67.3113C91.9436 67.0214 91.9162 66.7974 91.8132 66.6393C91.7127 66.4794 91.5254 66.3766 91.2512 66.331C90.9432 66.2798 90.5791 66.3162 90.1588 66.4404L90.0581 65.9836C90.2566 65.9149 90.4685 65.8705 90.6936 65.8502C90.921 65.8303 91.1437 65.8384 91.3617 65.8747C91.8023 65.948 92.1119 66.1 92.2907 66.3307C92.4717 66.5618 92.5263 66.8931 92.4545 67.3246L92.035 69.8466L91.6203 69.7776ZM90.4215 69.1729C90.7699 69.2308 91.0589 69.1807 91.2885 69.0225C91.5204 68.8648 91.6649 68.6139 91.7221 68.27L91.7776 67.9362L91.214 67.8667C90.7663 67.8084 90.4333 67.8246 90.2149 67.9154C89.9992 68.0042 89.8698 68.1779 89.8268 68.4364C89.7932 68.6387 89.8282 68.8027 89.932 68.9286C90.0381 69.0548 90.2013 69.1362 90.4215 69.1729ZM95.5032 66.5567C95.6673 66.584 95.8123 66.6219 95.9382 66.6706L95.7742 67.1769C95.627 67.1178 95.4949 67.0785 95.3781 67.0591C95.0791 67.0093 94.8027 67.0881 94.5487 67.2953C94.2971 67.5029 94.1411 67.7877 94.0809 68.1496L93.7512 70.1321L93.1915 70.039L93.8062 66.3437L94.2681 66.4205L94.2183 67.1156L94.2453 67.1201C94.4224 66.9024 94.6184 66.7444 94.8334 66.6462C95.0484 66.548 95.2717 66.5182 95.5032 66.5567ZM99.0278 71.0098L98.7107 68.7291C98.6901 68.5894 98.6604 68.2749 98.6216 67.7857L98.5947 67.7812C98.4393 68.1596 98.3102 68.45 98.2072 68.6523L97.1498 70.6974L96.5024 70.5898L96.109 66.7267L96.6957 66.8243C96.7795 67.7923 96.8429 68.5293 96.8857 69.0354C96.9308 69.5418 96.9484 69.8809 96.9383 70.0524L96.9653 70.0569C97.0113 69.9329 97.0781 69.7742 97.1657 69.5809C97.2559 69.3857 97.3312 69.2319 97.3915 69.1195L98.4219 67.1115L99.0288 67.2124L99.3369 69.4431C99.3985 69.8507 99.4299 70.1897 99.4311 70.4601L99.458 70.4646C99.4805 70.3852 99.5248 70.2644 99.5911 70.1022C99.6596 69.9403 100.045 69.0724 100.748 67.4985L101.328 67.5949L99.692 71.1203L99.0278 71.0098ZM103.657 71.7799L103.633 71.2354L103.606 71.2309C103.383 71.4318 103.173 71.5584 102.975 71.6109C102.779 71.6616 102.544 71.6641 102.27 71.6185C101.904 71.5575 101.632 71.4153 101.454 71.1917C101.279 70.9685 101.22 70.6827 101.278 70.3343C101.402 69.588 102.064 69.2962 103.264 69.4587L103.894 69.5428L103.932 69.3135C103.98 69.0236 103.953 68.7996 103.85 68.6415C103.749 68.4816 103.562 68.3788 103.288 68.3332C102.98 68.282 102.616 68.3184 102.196 68.4426L102.095 67.9858C102.293 67.9172 102.505 67.8727 102.73 67.8524C102.958 67.8325 103.18 67.8406 103.398 67.8769C103.839 67.9502 104.149 68.1022 104.327 68.3329C104.508 68.564 104.563 68.8953 104.491 69.3269L104.072 71.8488L103.657 71.7799ZM102.458 71.1751C102.807 71.233 103.096 71.1829 103.325 71.0248C103.557 70.867 103.702 70.6161 103.759 70.2722L103.814 69.9384L103.251 69.8689C102.803 69.8106 102.47 69.8268 102.252 69.9176C102.036 70.0064 101.907 70.1801 101.864 70.4386C101.83 70.6409 101.865 70.805 101.969 70.9308C102.075 71.057 102.238 71.1384 102.458 71.1751ZM105.788 72.1343L105.228 72.0412L105.843 68.3459L106.403 68.439L105.788 72.1343ZM105.962 67.3367C105.984 67.2085 106.031 67.1205 106.103 67.0725C106.176 67.0223 106.26 67.005 106.354 67.0207C106.444 67.0357 106.517 67.0789 106.572 67.1505C106.627 67.222 106.644 67.3207 106.623 67.4466C106.602 67.5725 106.554 67.6615 106.478 67.7135C106.403 67.7634 106.32 67.7808 106.23 67.7659C106.136 67.7502 106.062 67.7067 106.01 67.6356C105.957 67.5622 105.941 67.4625 105.962 67.3367Z" fill="white"/>
<path d="M75.5447 73.2151C75.239 73.1642 75.0177 73.031 74.8806 72.8155C74.745 72.5989 74.7059 72.3185 74.7631 71.9743C74.8219 71.6211 74.9521 71.3622 75.1537 71.1978C75.3565 71.0335 75.6153 70.9776 75.93 71.0299C76.0315 71.0468 76.1311 71.0746 76.229 71.1133C76.3268 71.152 76.4022 71.191 76.4551 71.2301L76.3116 71.4854C76.2457 71.4454 76.1724 71.4095 76.0919 71.3776C76.0117 71.3444 75.9394 71.3225 75.8752 71.3118C75.4462 71.2405 75.1862 71.4784 75.0952 72.0256C75.052 72.285 75.0709 72.4928 75.1519 72.6488C75.2341 72.805 75.378 72.9002 75.5835 72.9344C75.7595 72.9637 75.9462 72.9558 76.1438 72.9108L76.0967 73.194C75.9432 73.2437 75.7592 73.2507 75.5447 73.2151ZM77.8863 73.565L77.8727 73.2538L77.8573 73.2513C77.7299 73.366 77.6097 73.4384 77.4964 73.4684C77.3847 73.4974 77.2505 73.4988 77.0938 73.4727C76.8844 73.4379 76.729 73.3566 76.6275 73.2288C76.5273 73.1013 76.4937 72.938 76.5268 72.7389C76.5977 72.3125 76.9759 72.1457 77.6614 72.2386L78.0217 72.2866L78.0435 72.1556C78.071 71.9899 78.0554 71.8619 77.9965 71.7716C77.9391 71.6802 77.832 71.6215 77.6753 71.5954C77.4994 71.5662 77.2913 71.587 77.0511 71.6579L76.9936 71.3969C77.107 71.3577 77.2281 71.3323 77.3567 71.3207C77.4866 71.3093 77.6139 71.314 77.7385 71.3347C77.9902 71.3766 78.1672 71.4634 78.2693 71.5953C78.3728 71.7273 78.404 71.9166 78.363 72.1632L78.1232 73.6044L77.8863 73.565ZM77.2013 73.2194C77.4003 73.2525 77.5655 73.2238 77.6967 73.1335C77.8292 73.0433 77.9117 72.9 77.9444 72.7034L77.9762 72.5127L77.6541 72.473C77.3983 72.4397 77.208 72.4489 77.0832 72.5008C76.9599 72.5516 76.886 72.6508 76.8614 72.7985C76.8422 72.9141 76.8622 73.0079 76.9215 73.0798C76.9821 73.1519 77.0754 73.1984 77.2013 73.2194ZM80.0826 73.9303L80.0691 73.6192L80.0536 73.6166C79.9263 73.7314 79.806 73.8038 79.6928 73.8338C79.5811 73.8627 79.4469 73.8641 79.2902 73.8381C79.0808 73.8033 78.9254 73.722 78.8239 73.5942C78.7236 73.4666 78.6901 73.3033 78.7232 73.1042C78.7941 72.6778 79.1723 72.511 79.8578 72.6039L80.2181 72.652L80.2399 72.521C80.2674 72.3553 80.2517 72.2273 80.1928 72.137C80.1355 72.0456 80.0284 71.9869 79.8717 71.9608C79.6957 71.9315 79.4877 71.9524 79.2475 72.0233L79.19 71.7623C79.3034 71.723 79.4244 71.6976 79.5531 71.686C79.683 71.6747 79.8103 71.6793 79.9349 71.7C80.1866 71.7419 80.3636 71.8288 80.4657 71.9606C80.5692 72.0926 80.6004 72.282 80.5593 72.5286L80.3196 73.9697L80.0826 73.9303ZM79.3976 73.5847C79.5967 73.6178 79.7619 73.5892 79.8931 73.4988C80.0255 73.4087 80.1081 73.2653 80.1408 73.0688L80.1725 72.8781L79.8505 72.8383C79.5947 72.805 79.4044 72.8143 79.2796 72.8661C79.1563 72.9169 79.0824 73.0162 79.0578 73.1639C79.0386 73.2795 79.0586 73.3732 79.1179 73.4451C79.1785 73.5172 79.2718 73.5638 79.3976 73.5847ZM82.3014 72.0897C82.3952 72.1053 82.4781 72.127 82.55 72.1548L82.4563 72.4442C82.3722 72.4104 82.2967 72.3879 82.2299 72.3768C82.0591 72.3484 81.9011 72.3934 81.756 72.5118C81.6122 72.6305 81.5231 72.7932 81.4887 73L81.3003 74.1328L80.9805 74.0796L81.3317 71.968L81.5957 72.0119L81.5672 72.4091L81.5826 72.4117C81.6838 72.2873 81.7959 72.197 81.9187 72.1409C82.0416 72.0848 82.1691 72.0677 82.3014 72.0897ZM84.0755 74.3034L84.0582 74.3005C83.8748 74.4905 83.636 74.561 83.3419 74.5121C83.0658 74.4661 82.8663 74.3359 82.7436 74.1215C82.6221 73.9072 82.5904 73.6261 82.6483 73.278C82.7062 72.9299 82.8282 72.6724 83.0144 72.5053C83.2006 72.3383 83.4311 72.2777 83.706 72.3234C83.9924 72.371 84.1947 72.5116 84.313 72.7451L84.338 72.7493L84.3498 72.5948L84.3668 72.4452L84.5098 71.5859L84.8296 71.6391L84.3309 74.637L84.0708 74.5937L84.0755 74.3034ZM83.4269 74.251C83.6453 74.2873 83.8131 74.2545 83.9304 74.1526C84.0491 74.0496 84.1305 73.8658 84.1745 73.6012L84.1857 73.5337C84.2355 73.2345 84.2209 73.0129 84.1419 72.8691C84.0643 72.7242 83.9164 72.6336 83.698 72.5973C83.5105 72.5661 83.3545 72.6154 83.2299 72.7451C83.1069 72.8738 83.0232 73.0711 82.979 73.337C82.9342 73.6067 82.9497 73.8185 83.0258 73.9724C83.1018 74.1263 83.2355 74.2191 83.4269 74.251ZM84.9987 74.5382C85.0131 74.4521 85.0431 74.3905 85.0889 74.3532C85.1362 74.3149 85.1965 74.3018 85.2697 74.314C85.3442 74.3264 85.3982 74.3585 85.4319 74.4102C85.467 74.461 85.4774 74.5294 85.4631 74.6154C85.4492 74.6989 85.4173 74.7596 85.3674 74.7975C85.3176 74.8354 85.256 74.8483 85.1828 74.8361C85.1173 74.8252 85.066 74.7962 85.029 74.7491C84.9934 74.701 84.9834 74.6307 84.9987 74.5382ZM86.9004 75.104C86.5947 75.0531 86.3734 74.92 86.2363 74.7044C86.1007 74.4878 86.0616 74.2074 86.1188 73.8632C86.1776 73.51 86.3078 73.2512 86.5093 73.0867C86.7122 72.9224 86.971 72.8665 87.2857 72.9188C87.3872 72.9357 87.4868 72.9635 87.5847 73.0022C87.6825 73.0409 87.7579 73.0799 87.8107 73.119L87.6673 73.3743C87.6014 73.3343 87.5281 73.2984 87.4476 73.2665C87.3674 73.2334 87.2951 73.2115 87.2309 73.2008C86.8019 73.1294 86.5419 73.3673 86.4508 73.9145C86.4077 74.1739 86.4266 74.3817 86.5076 74.5377C86.5898 74.6939 86.7337 74.7892 86.9392 74.8233C87.1152 74.8526 87.3019 74.8447 87.4995 74.7997L87.4524 75.0829C87.2989 75.1326 87.1149 75.1397 86.9004 75.104ZM88.2632 75.2911L87.9434 75.2379L88.4421 72.24L88.7619 72.2932L88.2632 75.2911ZM89.5932 73.3423L89.3653 74.7121C89.3367 74.8842 89.3545 75.0192 89.4188 75.117C89.483 75.2148 89.5986 75.2776 89.7656 75.3054C89.9865 75.3421 90.1578 75.3086 90.2793 75.2047C90.4022 75.1011 90.4863 74.9124 90.5318 74.6389L90.7164 73.5291L91.0363 73.5823L90.685 75.6939L90.4211 75.65L90.4219 75.3591L90.4046 75.3562C90.3218 75.4494 90.2173 75.5138 90.0913 75.5496C89.9665 75.5856 89.8296 75.5912 89.6806 75.5664C89.4237 75.5237 89.2412 75.4307 89.133 75.2873C89.0262 75.1441 88.9951 74.9383 89.0397 74.6698L89.2695 73.2884L89.5932 73.3423ZM92.7047 73.8242C92.9822 73.8704 93.1815 74.0012 93.3027 74.2167C93.4254 74.4312 93.458 74.7118 93.4003 75.0586C93.3426 75.4054 93.22 75.6622 93.0326 75.829C92.8466 75.9947 92.6162 76.0547 92.3413 76.009C92.2039 75.9862 92.0822 75.9402 91.9762 75.8711C91.8717 75.8009 91.7897 75.7067 91.7301 75.5886L91.707 75.5847L91.5944 75.8452L91.3651 75.807L91.8638 72.8092L92.1836 72.8624L92.0625 73.5907C92.0353 73.7538 92.0058 73.8993 91.974 74.0274L91.9894 74.0299C92.1734 73.8441 92.4119 73.7755 92.7047 73.8242ZM92.6139 74.0843C92.3956 74.048 92.2278 74.0848 92.1105 74.1946C91.9934 74.3032 91.9102 74.5058 91.8609 74.8025C91.8115 75.0992 91.8256 75.32 91.9032 75.4649C91.9809 75.6085 92.129 75.6985 92.3473 75.7348C92.5438 75.7675 92.7021 75.7206 92.8222 75.594C92.9424 75.4662 93.0249 75.2681 93.0695 74.9996C93.1153 74.7247 93.1012 74.5119 93.0273 74.361C92.9534 74.2101 92.8156 74.1179 92.6139 74.0843ZM95.3228 73.5707L93.8043 76.2128L93.4844 76.1596L95.003 73.5175L95.3228 73.5707ZM95.6962 76.5275L95.246 74.2826L95.5889 74.3396L95.8353 75.6676C95.8894 75.9775 95.9181 76.1776 95.9216 76.268L95.937 76.2705C95.9624 76.2048 96.0301 76.0715 96.1401 75.8707C96.2516 75.6688 96.4981 75.23 96.8798 74.5543L97.2227 74.6114L96.07 76.5897L95.6962 76.5275ZM98.5091 76.9954L98.4956 76.6843L98.4801 76.6817C98.3528 76.7965 98.2325 76.8689 98.1193 76.8989C98.0076 76.9278 97.8734 76.9292 97.7167 76.9032C97.5073 76.8683 97.3519 76.7871 97.2504 76.6593C97.1501 76.5317 97.1166 76.3684 97.1497 76.1693C97.2206 75.7429 97.5988 75.5761 98.2843 75.669L98.6446 75.7171L98.6664 75.5861C98.6939 75.4204 98.6782 75.2924 98.6194 75.2021C98.562 75.1107 98.4549 75.0519 98.2982 75.0259C98.1222 74.9966 97.9142 75.0174 97.674 75.0884L97.6165 74.8273C97.7299 74.7881 97.8509 74.7627 97.9796 74.7511C98.1095 74.7397 98.2368 74.7444 98.3614 74.7651C98.6131 74.807 98.7901 74.8939 98.8922 75.0257C98.9957 75.1577 99.0269 75.3471 98.9858 75.5937L98.7461 77.0348L98.5091 76.9954ZM97.8241 76.6498C98.0232 76.6829 98.1884 76.6543 98.3196 76.5639C98.452 76.4737 98.5346 76.3304 98.5673 76.1339L98.599 75.9431L98.277 75.9034C98.0212 75.8701 97.8309 75.8794 97.7061 75.9312C97.5828 75.982 97.5089 76.0812 97.4843 76.229C97.4651 76.3446 97.4851 76.4383 97.5444 76.5102C97.605 76.5823 97.6983 76.6289 97.8241 76.6498ZM100.728 75.1548C100.822 75.1704 100.905 75.1921 100.976 75.2199L100.883 75.5093C100.799 75.4755 100.723 75.453 100.656 75.4419C100.486 75.4135 100.328 75.4585 100.183 75.5769C100.039 75.6956 99.9496 75.8583 99.9152 76.0651L99.7268 77.1979L99.407 77.1447L99.7582 75.0331L100.022 75.077L99.9937 75.4742L100.009 75.4768C100.11 75.3524 100.222 75.2621 100.345 75.206C100.468 75.1499 100.596 75.1328 100.728 75.1548ZM101.669 75.351L101.442 76.7209C101.413 76.893 101.431 77.028 101.495 77.1258C101.559 77.2236 101.675 77.2864 101.842 77.3141C102.063 77.3509 102.234 77.3173 102.356 77.2135C102.478 77.1098 102.563 76.9212 102.608 76.6476L102.793 75.5379L103.113 75.5911L102.761 77.7027L102.497 77.6588L102.498 77.3679L102.481 77.365C102.398 77.4581 102.294 77.5226 102.168 77.5584C102.043 77.5944 101.906 77.6 101.757 77.5752C101.5 77.5325 101.317 77.4394 101.209 77.296C101.102 77.1529 101.071 76.9471 101.116 76.6786L101.346 75.2972L101.669 75.351ZM104.886 78.0562L105.114 76.6902C105.142 76.5181 105.124 76.3831 105.06 76.2853C104.996 76.1875 104.88 76.1247 104.713 76.0969C104.492 76.0602 104.321 76.093 104.198 76.1954C104.075 76.2977 103.991 76.4863 103.945 76.7612L103.761 77.869L103.441 77.8158L103.793 75.7042L104.053 75.7475L104.057 76.0451L104.072 76.0477C104.155 75.9546 104.26 75.8896 104.388 75.8527C104.515 75.8146 104.652 75.8076 104.797 75.8317C105.051 75.874 105.232 75.9675 105.34 76.1122C105.449 76.2555 105.48 76.4621 105.435 76.7318L105.206 78.1094L104.886 78.0562Z" fill="#7A7A7A"/>
<path fill-rule="evenodd" clip-rule="evenodd" d="M79.5444 91.9667L85.5712 84.1319L80.4484 71.777L74.7229 69.0649L71.4082 74.4891L75.3256 78.4065L72.3122 87.748L79.5444 91.9667" fill="#EA8C7A"/>
<rect x="151" y="81" width="109" height="24" rx="8" fill="#222222"/>
<path d="M176.262 93.2051C176.262 94.6465 175.908 95.7422 175.201 96.4922C174.494 97.2422 173.459 97.6172 172.096 97.6172C170.752 97.6172 169.721 97.2402 169.002 96.4863C168.287 95.7324 167.93 94.6348 167.93 93.1934C167.93 91.7676 168.285 90.6797 168.996 89.9297C169.711 89.1758 170.748 88.7988 172.107 88.7988C173.471 88.7988 174.504 89.1719 175.207 89.918C175.91 90.6641 176.262 91.7598 176.262 93.2051ZM170.367 93.2051C170.367 94.8613 170.943 95.6895 172.096 95.6895C172.682 95.6895 173.115 95.4883 173.396 95.0859C173.682 94.6836 173.824 94.0566 173.824 93.2051C173.824 92.3496 173.68 91.7188 173.391 91.3125C173.105 90.9023 172.678 90.6973 172.107 90.6973C170.947 90.6973 170.367 91.5332 170.367 93.2051ZM180.123 94.3828V97.5H177.809V88.9336H180.615C182.943 88.9336 184.107 89.7773 184.107 91.4648C184.107 92.457 183.623 93.2246 182.654 93.7676L185.15 97.5H182.525L180.709 94.3828H180.123ZM180.123 92.6426H180.557C181.365 92.6426 181.77 92.2852 181.77 91.5703C181.77 90.9805 181.373 90.6855 180.58 90.6855H180.123V92.6426ZM193.201 93.0352C193.201 94.4648 192.807 95.5664 192.018 96.3398C191.232 97.1133 190.127 97.5 188.701 97.5H185.93V88.9336H188.895C190.27 88.9336 191.33 89.2852 192.076 89.9883C192.826 90.6914 193.201 91.707 193.201 93.0352ZM190.799 93.1172C190.799 92.332 190.643 91.75 190.33 91.3711C190.021 90.9922 189.551 90.8027 188.918 90.8027H188.244V95.6016H188.76C189.463 95.6016 189.979 95.3984 190.307 94.9922C190.635 94.582 190.799 93.957 190.799 93.1172ZM199.828 97.5H194.742V88.9336H199.828V90.791H197.057V92.1387H199.623V93.9961H197.057V95.6133H199.828V97.5ZM203.643 94.3828V97.5H201.328V88.9336H204.135C206.463 88.9336 207.627 89.7773 207.627 91.4648C207.627 92.457 207.143 93.2246 206.174 93.7676L208.67 97.5H206.045L204.229 94.3828H203.643ZM203.643 92.6426H204.076C204.885 92.6426 205.289 92.2852 205.289 91.5703C205.289 90.9805 204.893 90.6855 204.1 90.6855H203.643V92.6426ZM220.723 97.5H217.688L214.559 91.4648H214.506C214.58 92.4141 214.617 93.1387 214.617 93.6387V97.5H212.566V88.9336H215.59L218.707 94.8867H218.742C218.688 94.0234 218.66 93.3301 218.66 92.8066V88.9336H220.723V97.5ZM230.59 93.2051C230.59 94.6465 230.236 95.7422 229.529 96.4922C228.822 97.2422 227.787 97.6172 226.424 97.6172C225.08 97.6172 224.049 97.2402 223.33 96.4863C222.615 95.7324 222.258 94.6348 222.258 93.1934C222.258 91.7676 222.613 90.6797 223.324 89.9297C224.039 89.1758 225.076 88.7988 226.436 88.7988C227.799 88.7988 228.832 89.1719 229.535 89.918C230.238 90.6641 230.59 91.7598 230.59 93.2051ZM224.695 93.2051C224.695 94.8613 225.271 95.6895 226.424 95.6895C227.01 95.6895 227.443 95.4883 227.725 95.0859C228.01 94.6836 228.152 94.0566 228.152 93.2051C228.152 92.3496 228.008 91.7188 227.719 91.3125C227.434 90.9023 227.006 90.6973 226.436 90.6973C225.275 90.6973 224.695 91.5332 224.695 93.2051ZM241.389 97.5H238.652L237.832 93.7676C237.793 93.6113 237.73 93.3008 237.645 92.8359C237.562 92.3711 237.502 91.9824 237.463 91.6699C237.432 91.9238 237.381 92.2402 237.311 92.6191C237.24 92.9941 237.17 93.3398 237.1 93.6562C237.033 93.9727 236.75 95.2539 236.25 97.5H233.514L231.393 88.9336H233.625L234.557 93.2285C234.768 94.1777 234.912 94.9336 234.99 95.4961C235.041 95.0977 235.131 94.5566 235.26 93.873C235.393 93.1895 235.516 92.623 235.629 92.1738L236.385 88.9336H238.529L239.262 92.1738C239.387 92.6934 239.514 93.293 239.643 93.9727C239.771 94.6523 239.857 95.1602 239.9 95.4961C239.951 95.0625 240.09 94.3105 240.316 93.2402L241.266 88.9336H243.498L241.389 97.5Z" fill="white"/>
<path d="M156.052 24.3877H160.017V29.5693C159.374 29.779 158.768 29.9248 158.198 30.0068C157.633 30.0934 157.054 30.1367 156.462 30.1367C154.953 30.1367 153.8 29.6947 153.003 28.8105C152.21 27.9219 151.813 26.6481 151.813 24.9893C151.813 23.376 152.274 22.1182 153.194 21.2158C154.119 20.3135 155.4 19.8623 157.036 19.8623C158.062 19.8623 159.05 20.0674 160.003 20.4775L159.299 22.1729C158.57 21.8083 157.811 21.626 157.022 21.626C156.106 21.626 155.373 21.9336 154.821 22.5488C154.27 23.1641 153.994 23.9912 153.994 25.0303C153.994 26.1149 154.215 26.9443 154.657 27.5186C155.104 28.0882 155.751 28.373 156.599 28.373C157.041 28.373 157.49 28.3275 157.945 28.2363V26.1514H156.052V24.3877ZM165.403 23.6973C164.961 23.6973 164.615 23.8385 164.364 24.1211C164.114 24.3991 163.97 24.7956 163.934 25.3105H166.859C166.85 24.7956 166.716 24.3991 166.456 24.1211C166.196 23.8385 165.845 23.6973 165.403 23.6973ZM165.697 30.1367C164.467 30.1367 163.505 29.7972 162.812 29.1182C162.12 28.4391 161.773 27.4775 161.773 26.2334C161.773 24.9528 162.092 23.9639 162.73 23.2666C163.373 22.5648 164.259 22.2139 165.39 22.2139C166.47 22.2139 167.311 22.5215 167.912 23.1367C168.514 23.752 168.814 24.6019 168.814 25.6865V26.6982H163.886C163.909 27.2907 164.084 27.7533 164.412 28.0859C164.74 28.4186 165.201 28.585 165.793 28.585C166.253 28.585 166.688 28.5371 167.099 28.4414C167.509 28.3457 167.937 28.193 168.384 27.9834V29.5967C168.019 29.779 167.63 29.9134 167.215 30C166.8 30.0911 166.294 30.1367 165.697 30.1367ZM173.729 28.4756C174.094 28.4756 174.532 28.3958 175.042 28.2363V29.7881C174.522 30.0205 173.884 30.1367 173.128 30.1367C172.294 30.1367 171.686 29.9271 171.303 29.5078C170.924 29.084 170.735 28.4505 170.735 27.6074V23.9229H169.737V23.041L170.886 22.3438L171.487 20.7305H172.82V22.3574H174.96V23.9229H172.82V27.6074C172.82 27.9036 172.902 28.1224 173.066 28.2637C173.235 28.4049 173.456 28.4756 173.729 28.4756ZM185.084 30L184.681 28.9609H184.626C184.275 29.403 183.913 29.7106 183.539 29.8838C183.17 30.0524 182.687 30.1367 182.09 30.1367C181.356 30.1367 180.777 29.9271 180.354 29.5078C179.934 29.0885 179.725 28.4915 179.725 27.7168C179.725 26.9056 180.007 26.3086 180.572 25.9258C181.142 25.5384 181.999 25.3242 183.143 25.2832L184.469 25.2422V24.9072C184.469 24.1325 184.072 23.7451 183.279 23.7451C182.669 23.7451 181.951 23.9297 181.126 24.2988L180.436 22.8906C181.315 22.4303 182.29 22.2002 183.361 22.2002C184.387 22.2002 185.173 22.4235 185.72 22.8701C186.267 23.3167 186.54 23.9958 186.54 24.9072V30H185.084ZM184.469 26.459L183.662 26.4863C183.056 26.5046 182.605 26.6139 182.309 26.8145C182.012 27.015 181.864 27.3203 181.864 27.7305C181.864 28.3184 182.201 28.6123 182.876 28.6123C183.359 28.6123 183.744 28.4733 184.031 28.1953C184.323 27.9173 184.469 27.5482 184.469 27.0879V26.459ZM194.613 24.709H195.311C195.962 24.709 196.45 24.5814 196.773 24.3262C197.097 24.0664 197.259 23.6904 197.259 23.1982C197.259 22.7015 197.122 22.3346 196.849 22.0977C196.58 21.8607 196.156 21.7422 195.577 21.7422H194.613V24.709ZM199.398 23.123C199.398 24.1986 199.061 25.0212 198.387 25.5908C197.717 26.1605 196.762 26.4453 195.522 26.4453H194.613V30H192.494V20.0059H195.687C196.899 20.0059 197.819 20.2679 198.448 20.792C199.082 21.3115 199.398 22.0885 199.398 23.123ZM204.286 23.6973C203.844 23.6973 203.498 23.8385 203.247 24.1211C202.996 24.3991 202.853 24.7956 202.816 25.3105H205.742C205.733 24.7956 205.599 24.3991 205.339 24.1211C205.079 23.8385 204.728 23.6973 204.286 23.6973ZM204.58 30.1367C203.35 30.1367 202.388 29.7972 201.695 29.1182C201.003 28.4391 200.656 27.4775 200.656 26.2334C200.656 24.9528 200.975 23.9639 201.613 23.2666C202.256 22.5648 203.142 22.2139 204.272 22.2139C205.353 22.2139 206.193 22.5215 206.795 23.1367C207.396 23.752 207.697 24.6019 207.697 25.6865V26.6982H202.769C202.791 27.2907 202.967 27.7533 203.295 28.0859C203.623 28.4186 204.083 28.585 204.676 28.585C205.136 28.585 205.571 28.5371 205.981 28.4414C206.392 28.3457 206.82 28.193 207.267 27.9834V29.5967C206.902 29.779 206.512 29.9134 206.098 30C205.683 30.0911 205.177 30.1367 204.58 30.1367ZM213.658 22.2139C213.941 22.2139 214.175 22.2344 214.362 22.2754L214.205 24.2305C214.036 24.1849 213.831 24.1621 213.59 24.1621C212.924 24.1621 212.405 24.333 212.031 24.6748C211.662 25.0166 211.478 25.4951 211.478 26.1104V30H209.393V22.3574H210.972L211.279 23.6426H211.382C211.619 23.2142 211.938 22.8701 212.339 22.6104C212.744 22.346 213.184 22.2139 213.658 22.2139ZM221.082 27.7305C221.082 28.5143 220.809 29.1113 220.262 29.5215C219.719 29.9316 218.906 30.1367 217.821 30.1367C217.265 30.1367 216.791 30.098 216.399 30.0205C216.007 29.9476 215.641 29.8382 215.299 29.6924V27.9697C215.686 28.152 216.121 28.3047 216.604 28.4277C217.092 28.5508 217.521 28.6123 217.89 28.6123C218.646 28.6123 219.024 28.3936 219.024 27.9561C219.024 27.792 218.974 27.6598 218.874 27.5596C218.774 27.4548 218.601 27.3385 218.354 27.2109C218.108 27.0788 217.78 26.9261 217.37 26.7529C216.782 26.5068 216.349 26.279 216.071 26.0693C215.798 25.8597 215.597 25.6204 215.47 25.3516C215.347 25.0781 215.285 24.7432 215.285 24.3467C215.285 23.6676 215.547 23.1436 216.071 22.7744C216.6 22.4007 217.347 22.2139 218.313 22.2139C219.234 22.2139 220.13 22.4144 221 22.8154L220.371 24.3193C219.988 24.1553 219.631 24.0208 219.298 23.916C218.965 23.8112 218.626 23.7588 218.279 23.7588C217.664 23.7588 217.356 23.9251 217.356 24.2578C217.356 24.4447 217.454 24.6064 217.65 24.7432C217.851 24.8799 218.286 25.0827 218.956 25.3516C219.553 25.5931 219.991 25.8187 220.269 26.0283C220.547 26.238 220.752 26.4795 220.884 26.7529C221.016 27.0264 221.082 27.3522 221.082 27.7305ZM224.37 26.165C224.37 26.9215 224.493 27.4935 224.739 27.8809C224.99 28.2682 225.396 28.4619 225.956 28.4619C226.512 28.4619 226.911 28.2705 227.152 27.8877C227.398 27.5003 227.521 26.9261 227.521 26.165C227.521 25.4085 227.398 24.8411 227.152 24.4629C226.906 24.0846 226.503 23.8955 225.942 23.8955C225.386 23.8955 224.985 24.0846 224.739 24.4629C224.493 24.8366 224.37 25.404 224.37 26.165ZM229.654 26.165C229.654 27.4092 229.326 28.3822 228.67 29.084C228.014 29.7858 227.1 30.1367 225.929 30.1367C225.195 30.1367 224.548 29.9772 223.987 29.6582C223.427 29.3346 222.996 28.8721 222.695 28.2705C222.395 27.6689 222.244 26.9671 222.244 26.165C222.244 24.9163 222.57 23.9456 223.222 23.2529C223.873 22.5602 224.789 22.2139 225.97 22.2139C226.703 22.2139 227.351 22.3734 227.911 22.6924C228.472 23.0114 228.902 23.4694 229.203 24.0664C229.504 24.6634 229.654 25.363 229.654 26.165ZM238.432 30H236.347V25.5361C236.347 24.9847 236.249 24.5723 236.053 24.2988C235.857 24.0208 235.545 23.8818 235.116 23.8818C234.533 23.8818 234.111 24.0778 233.852 24.4697C233.592 24.8571 233.462 25.502 233.462 26.4043V30H231.377V22.3574H232.97L233.25 23.335H233.366C233.599 22.9658 233.918 22.6878 234.323 22.501C234.733 22.3096 235.198 22.2139 235.718 22.2139C236.606 22.2139 237.281 22.4554 237.741 22.9385C238.201 23.417 238.432 24.1097 238.432 25.0166V30ZM245.432 30L245.028 28.9609H244.974C244.623 29.403 244.26 29.7106 243.887 29.8838C243.518 30.0524 243.035 30.1367 242.438 30.1367C241.704 30.1367 241.125 29.9271 240.701 29.5078C240.282 29.0885 240.072 28.4915 240.072 27.7168C240.072 26.9056 240.355 26.3086 240.92 25.9258C241.49 25.5384 242.346 25.3242 243.49 25.2832L244.816 25.2422V24.9072C244.816 24.1325 244.42 23.7451 243.627 23.7451C243.016 23.7451 242.299 23.9297 241.474 24.2988L240.783 22.8906C241.663 22.4303 242.638 22.2002 243.709 22.2002C244.734 22.2002 245.521 22.4235 246.067 22.8701C246.614 23.3167 246.888 23.9958 246.888 24.9072V30H245.432ZM244.816 26.459L244.01 26.4863C243.404 26.5046 242.952 26.6139 242.656 26.8145C242.36 27.015 242.212 27.3203 242.212 27.7305C242.212 28.3184 242.549 28.6123 243.224 28.6123C243.707 28.6123 244.092 28.4733 244.379 28.1953C244.671 27.9173 244.816 27.5482 244.816 27.0879V26.459ZM251.126 30H249.041V19.3633H251.126V30ZM253.231 20.3818C253.231 19.7028 253.61 19.3633 254.366 19.3633C255.123 19.3633 255.501 19.7028 255.501 20.3818C255.501 20.7054 255.405 20.9583 255.214 21.1406C255.027 21.3184 254.744 21.4072 254.366 21.4072C253.61 21.4072 253.231 21.0654 253.231 20.3818ZM255.405 30H253.32V22.3574H255.405V30ZM262.932 27.7305C262.932 28.5143 262.658 29.1113 262.111 29.5215C261.569 29.9316 260.756 30.1367 259.671 30.1367C259.115 30.1367 258.641 30.098 258.249 30.0205C257.857 29.9476 257.49 29.8382 257.148 29.6924V27.9697C257.536 28.152 257.971 28.3047 258.454 28.4277C258.942 28.5508 259.37 28.6123 259.739 28.6123C260.496 28.6123 260.874 28.3936 260.874 27.9561C260.874 27.792 260.824 27.6598 260.724 27.5596C260.623 27.4548 260.45 27.3385 260.204 27.2109C259.958 27.0788 259.63 26.9261 259.22 26.7529C258.632 26.5068 258.199 26.279 257.921 26.0693C257.647 25.8597 257.447 25.6204 257.319 25.3516C257.196 25.0781 257.135 24.7432 257.135 24.3467C257.135 23.6676 257.397 23.1436 257.921 22.7744C258.45 22.4007 259.197 22.2139 260.163 22.2139C261.084 22.2139 261.979 22.4144 262.85 22.8154L262.221 24.3193C261.838 24.1553 261.48 24.0208 261.147 23.916C260.815 23.8112 260.475 23.7588 260.129 23.7588C259.514 23.7588 259.206 23.9251 259.206 24.2578C259.206 24.4447 259.304 24.6064 259.5 24.7432C259.701 24.8799 260.136 25.0827 260.806 25.3516C261.403 25.5931 261.84 25.8187 262.118 26.0283C262.396 26.238 262.601 26.4795 262.733 26.7529C262.866 27.0264 262.932 27.3522 262.932 27.7305ZM267.724 23.6973C267.282 23.6973 266.935 23.8385 266.685 24.1211C266.434 24.3991 266.29 24.7956 266.254 25.3105H269.18C269.171 24.7956 269.036 24.3991 268.776 24.1211C268.517 23.8385 268.166 23.6973 267.724 23.6973ZM268.018 30.1367C266.787 30.1367 265.826 29.7972 265.133 29.1182C264.44 28.4391 264.094 27.4775 264.094 26.2334C264.094 24.9528 264.413 23.9639 265.051 23.2666C265.693 22.5648 266.58 22.2139 267.71 22.2139C268.79 22.2139 269.631 22.5215 270.232 23.1367C270.834 23.752 271.135 24.6019 271.135 25.6865V26.6982H266.206C266.229 27.2907 266.404 27.7533 266.732 28.0859C267.061 28.4186 267.521 28.585 268.113 28.585C268.574 28.585 269.009 28.5371 269.419 28.4414C269.829 28.3457 270.257 28.193 270.704 27.9834V29.5967C270.34 29.779 269.95 29.9134 269.535 30C269.12 30.0911 268.615 30.1367 268.018 30.1367ZM275.25 30.1367C274.352 30.1367 273.646 29.7881 273.131 29.0908C272.62 28.3936 272.365 27.4274 272.365 26.1924C272.365 24.9391 272.625 23.9639 273.145 23.2666C273.669 22.5648 274.389 22.2139 275.305 22.2139C276.266 22.2139 277 22.5876 277.506 23.335H277.574C277.469 22.7653 277.417 22.2572 277.417 21.8105V19.3633H279.509V30H277.909L277.506 29.0088H277.417C276.943 29.7607 276.221 30.1367 275.25 30.1367ZM275.981 28.4756C276.515 28.4756 276.904 28.3206 277.15 28.0107C277.401 27.7008 277.538 27.1745 277.561 26.4316V26.2061C277.561 25.3857 277.433 24.7979 277.178 24.4424C276.927 24.0869 276.517 23.9092 275.947 23.9092C275.482 23.9092 275.12 24.1074 274.86 24.5039C274.605 24.8958 274.478 25.4678 274.478 26.2197C274.478 26.9717 274.607 27.5368 274.867 27.915C275.127 28.2887 275.498 28.4756 275.981 28.4756ZM160.55 43.9072C160.55 45.5524 160.08 46.8125 159.142 47.6875C158.207 48.5625 156.856 49 155.088 49H152.258V39.0059H155.396C157.027 39.0059 158.294 39.4365 159.196 40.2979C160.099 41.1592 160.55 42.3623 160.55 43.9072ZM158.349 43.9619C158.349 41.8154 157.401 40.7422 155.505 40.7422H154.377V47.25H155.286C157.328 47.25 158.349 46.154 158.349 43.9619ZM162.368 39.3818C162.368 38.7028 162.746 38.3633 163.503 38.3633C164.259 38.3633 164.638 38.7028 164.638 39.3818C164.638 39.7054 164.542 39.9583 164.351 40.1406C164.164 40.3184 163.881 40.4072 163.503 40.4072C162.746 40.4072 162.368 40.0654 162.368 39.3818ZM164.542 49H162.457V41.3574H164.542V49ZM173.388 41.3574V42.417L172.191 42.7246C172.41 43.0664 172.52 43.4492 172.52 43.873C172.52 44.6934 172.232 45.3337 171.658 45.7939C171.089 46.2497 170.296 46.4775 169.279 46.4775L168.903 46.457L168.596 46.4229C168.382 46.5869 168.274 46.7692 168.274 46.9697C168.274 47.2705 168.657 47.4209 169.423 47.4209H170.722C171.56 47.4209 172.198 47.6009 172.636 47.9609C173.078 48.321 173.299 48.8496 173.299 49.5469C173.299 50.4401 172.925 51.1328 172.178 51.625C171.435 52.1172 170.366 52.3633 168.972 52.3633C167.905 52.3633 167.09 52.1764 166.524 51.8027C165.964 51.4336 165.684 50.9141 165.684 50.2441C165.684 49.7839 165.827 49.3988 166.114 49.0889C166.401 48.779 166.823 48.5579 167.379 48.4258C167.165 48.3346 166.978 48.1865 166.818 47.9814C166.659 47.7718 166.579 47.5508 166.579 47.3184C166.579 47.0267 166.663 46.7852 166.832 46.5938C167.001 46.3978 167.244 46.2064 167.563 46.0195C167.162 45.8464 166.843 45.5684 166.606 45.1855C166.374 44.8027 166.258 44.3516 166.258 43.832C166.258 42.998 166.529 42.3532 167.071 41.8975C167.614 41.4417 168.388 41.2139 169.396 41.2139C169.61 41.2139 169.863 41.2344 170.154 41.2754C170.451 41.3118 170.64 41.3392 170.722 41.3574H173.388ZM167.488 50.0801C167.488 50.3672 167.625 50.5928 167.898 50.7568C168.176 50.9209 168.564 51.0029 169.061 51.0029C169.808 51.0029 170.394 50.9004 170.817 50.6953C171.241 50.4902 171.453 50.21 171.453 49.8545C171.453 49.5674 171.328 49.3691 171.077 49.2598C170.826 49.1504 170.439 49.0957 169.915 49.0957H168.835C168.452 49.0957 168.131 49.1846 167.871 49.3623C167.616 49.5446 167.488 49.7839 167.488 50.0801ZM168.247 43.8594C168.247 44.2741 168.34 44.6022 168.527 44.8438C168.719 45.0853 169.008 45.2061 169.396 45.2061C169.787 45.2061 170.075 45.0853 170.257 44.8438C170.439 44.6022 170.53 44.2741 170.53 43.8594C170.53 42.9388 170.152 42.4785 169.396 42.4785C168.63 42.4785 168.247 42.9388 168.247 43.8594ZM174.563 39.3818C174.563 38.7028 174.942 38.3633 175.698 38.3633C176.455 38.3633 176.833 38.7028 176.833 39.3818C176.833 39.7054 176.737 39.9583 176.546 40.1406C176.359 40.3184 176.076 40.4072 175.698 40.4072C174.942 40.4072 174.563 40.0654 174.563 39.3818ZM176.737 49H174.652V41.3574H176.737V49ZM182.151 47.4756C182.516 47.4756 182.953 47.3958 183.464 47.2363V48.7881C182.944 49.0205 182.306 49.1367 181.55 49.1367C180.716 49.1367 180.107 48.9271 179.725 48.5078C179.346 48.084 179.157 47.4505 179.157 46.6074V42.9229H178.159V42.041L179.308 41.3438L179.909 39.7305H181.242V41.3574H183.382V42.9229H181.242V46.6074C181.242 46.9036 181.324 47.1224 181.488 47.2637C181.657 47.4049 181.878 47.4756 182.151 47.4756ZM189.869 49L189.466 47.9609H189.411C189.06 48.403 188.698 48.7106 188.324 48.8838C187.955 49.0524 187.472 49.1367 186.875 49.1367C186.141 49.1367 185.562 48.9271 185.139 48.5078C184.719 48.0885 184.51 47.4915 184.51 46.7168C184.51 45.9056 184.792 45.3086 185.357 44.9258C185.927 44.5384 186.784 44.3242 187.928 44.2832L189.254 44.2422V43.9072C189.254 43.1325 188.857 42.7451 188.064 42.7451C187.454 42.7451 186.736 42.9297 185.911 43.2988L185.221 41.8906C186.1 41.4303 187.076 41.2002 188.146 41.2002C189.172 41.2002 189.958 41.4235 190.505 41.8701C191.052 42.3167 191.325 42.9958 191.325 43.9072V49H189.869ZM189.254 45.459L188.447 45.4863C187.841 45.5046 187.39 45.6139 187.094 45.8145C186.798 46.015 186.649 46.3203 186.649 46.7305C186.649 47.3184 186.987 47.6123 187.661 47.6123C188.144 47.6123 188.529 47.4733 188.816 47.1953C189.108 46.9173 189.254 46.5482 189.254 46.0879V45.459ZM195.563 49H193.479V38.3633H195.563V49ZM205.804 40.626C205.006 40.626 204.389 40.9268 203.951 41.5283C203.514 42.1253 203.295 42.9593 203.295 44.0303C203.295 46.2588 204.131 47.373 205.804 47.373C206.506 47.373 207.355 47.1976 208.354 46.8467V48.624C207.533 48.9658 206.617 49.1367 205.605 49.1367C204.152 49.1367 203.04 48.6969 202.27 47.8174C201.499 46.9333 201.114 45.6663 201.114 44.0166C201.114 42.9775 201.303 42.0684 201.682 41.2891C202.06 40.5052 202.602 39.9059 203.309 39.4912C204.02 39.0719 204.851 38.8623 205.804 38.8623C206.774 38.8623 207.75 39.097 208.729 39.5664L208.046 41.2891C207.672 41.1113 207.296 40.9564 206.918 40.8242C206.54 40.6921 206.168 40.626 205.804 40.626ZM215.176 49L214.772 47.9609H214.718C214.367 48.403 214.005 48.7106 213.631 48.8838C213.262 49.0524 212.779 49.1367 212.182 49.1367C211.448 49.1367 210.869 48.9271 210.445 48.5078C210.026 48.0885 209.816 47.4915 209.816 46.7168C209.816 45.9056 210.099 45.3086 210.664 44.9258C211.234 44.5384 212.09 44.3242 213.234 44.2832L214.561 44.2422V43.9072C214.561 43.1325 214.164 42.7451 213.371 42.7451C212.76 42.7451 212.043 42.9297 211.218 43.2988L210.527 41.8906C211.407 41.4303 212.382 41.2002 213.453 41.2002C214.479 41.2002 215.265 41.4235 215.812 41.8701C216.358 42.3167 216.632 42.9958 216.632 43.9072V49H215.176ZM214.561 45.459L213.754 45.4863C213.148 45.5046 212.697 45.6139 212.4 45.8145C212.104 46.015 211.956 46.3203 211.956 46.7305C211.956 47.3184 212.293 47.6123 212.968 47.6123C213.451 47.6123 213.836 47.4733 214.123 47.1953C214.415 46.9173 214.561 46.5482 214.561 46.0879V45.459ZM223.051 41.2139C223.333 41.2139 223.568 41.2344 223.755 41.2754L223.598 43.2305C223.429 43.1849 223.224 43.1621 222.982 43.1621C222.317 43.1621 221.798 43.333 221.424 43.6748C221.055 44.0166 220.87 44.4951 220.87 45.1104V49H218.785V41.3574H220.364L220.672 42.6426H220.774C221.011 42.2142 221.33 41.8701 221.731 41.6104C222.137 41.346 222.577 41.2139 223.051 41.2139ZM227.562 49.1367C226.665 49.1367 225.958 48.7881 225.443 48.0908C224.933 47.3936 224.678 46.4274 224.678 45.1924C224.678 43.9391 224.938 42.9639 225.457 42.2666C225.981 41.5648 226.701 41.2139 227.617 41.2139C228.579 41.2139 229.312 41.5876 229.818 42.335H229.887C229.782 41.7653 229.729 41.2572 229.729 40.8105V38.3633H231.821V49H230.222L229.818 48.0088H229.729C229.256 48.7607 228.533 49.1367 227.562 49.1367ZM228.294 47.4756C228.827 47.4756 229.217 47.3206 229.463 47.0107C229.714 46.7008 229.85 46.1745 229.873 45.4316V45.2061C229.873 44.3857 229.745 43.7979 229.49 43.4424C229.24 43.0869 228.829 42.9092 228.26 42.9092C227.795 42.9092 227.433 43.1074 227.173 43.5039C226.918 43.8958 226.79 44.4678 226.79 45.2197C226.79 45.9717 226.92 46.5368 227.18 46.915C227.439 47.2887 227.811 47.4756 228.294 47.4756ZM240.858 47.4756C241.223 47.4756 241.66 47.3958 242.171 47.2363V48.7881C241.651 49.0205 241.013 49.1367 240.257 49.1367C239.423 49.1367 238.814 48.9271 238.432 48.5078C238.053 48.084 237.864 47.4505 237.864 46.6074V42.9229H236.866V42.041L238.015 41.3438L238.616 39.7305H239.949V41.3574H242.089V42.9229H239.949V46.6074C239.949 46.9036 240.031 47.1224 240.195 47.2637C240.364 47.4049 240.585 47.4756 240.858 47.4756ZM245.384 45.165C245.384 45.9215 245.507 46.4935 245.753 46.8809C246.004 47.2682 246.409 47.4619 246.97 47.4619C247.526 47.4619 247.924 47.2705 248.166 46.8877C248.412 46.5003 248.535 45.9261 248.535 45.165C248.535 44.4085 248.412 43.8411 248.166 43.4629C247.92 43.0846 247.517 42.8955 246.956 42.8955C246.4 42.8955 245.999 43.0846 245.753 43.4629C245.507 43.8366 245.384 44.404 245.384 45.165ZM250.668 45.165C250.668 46.4092 250.34 47.3822 249.684 48.084C249.027 48.7858 248.114 49.1367 246.942 49.1367C246.209 49.1367 245.562 48.9772 245.001 48.6582C244.44 48.3346 244.01 47.8721 243.709 47.2705C243.408 46.6689 243.258 45.9671 243.258 45.165C243.258 43.9163 243.584 42.9456 244.235 42.2529C244.887 41.5602 245.803 41.2139 246.983 41.2139C247.717 41.2139 248.364 41.3734 248.925 41.6924C249.485 42.0114 249.916 42.4694 250.217 43.0664C250.518 43.6634 250.668 44.363 250.668 45.165ZM155.197 68.1367C152.818 68.1367 151.629 66.8311 151.629 64.2197C151.629 62.9209 151.952 61.9297 152.6 61.2461C153.247 60.5579 154.174 60.2139 155.382 60.2139C156.266 60.2139 157.059 60.387 157.761 60.7334L157.146 62.3467C156.817 62.2145 156.512 62.1074 156.229 62.0254C155.947 61.9388 155.664 61.8955 155.382 61.8955C154.297 61.8955 153.755 62.6657 153.755 64.2061C153.755 65.7008 154.297 66.4482 155.382 66.4482C155.783 66.4482 156.154 66.3958 156.496 66.291C156.838 66.1816 157.18 66.013 157.521 65.7852V67.5693C157.184 67.7835 156.842 67.9316 156.496 68.0137C156.154 68.0957 155.721 68.1367 155.197 68.1367ZM160.96 64.165C160.96 64.9215 161.083 65.4935 161.329 65.8809C161.58 66.2682 161.985 66.4619 162.546 66.4619C163.102 66.4619 163.501 66.2705 163.742 65.8877C163.988 65.5003 164.111 64.9261 164.111 64.165C164.111 63.4085 163.988 62.8411 163.742 62.4629C163.496 62.0846 163.093 61.8955 162.532 61.8955C161.976 61.8955 161.575 62.0846 161.329 62.4629C161.083 62.8366 160.96 63.404 160.96 64.165ZM166.244 64.165C166.244 65.4092 165.916 66.3822 165.26 67.084C164.604 67.7858 163.69 68.1367 162.519 68.1367C161.785 68.1367 161.138 67.9772 160.577 67.6582C160.017 67.3346 159.586 66.8721 159.285 66.2705C158.984 65.6689 158.834 64.9671 158.834 64.165C158.834 62.9163 159.16 61.9456 159.812 61.2529C160.463 60.5602 161.379 60.2139 162.56 60.2139C163.293 60.2139 163.94 60.3734 164.501 60.6924C165.062 61.0114 165.492 61.4694 165.793 62.0664C166.094 62.6634 166.244 63.363 166.244 64.165ZM175.021 68H172.937V63.5361C172.937 62.9847 172.839 62.5723 172.643 62.2988C172.447 62.0208 172.134 61.8818 171.706 61.8818C171.123 61.8818 170.701 62.0778 170.441 62.4697C170.182 62.8571 170.052 63.502 170.052 64.4043V68H167.967V60.3574H169.56L169.84 61.335H169.956C170.188 60.9658 170.507 60.6878 170.913 60.501C171.323 60.3096 171.788 60.2139 172.308 60.2139C173.196 60.2139 173.871 60.4554 174.331 60.9385C174.791 61.417 175.021 62.1097 175.021 63.0166V68ZM184.223 68H182.138V63.5361C182.138 62.9847 182.04 62.5723 181.844 62.2988C181.648 62.0208 181.336 61.8818 180.907 61.8818C180.324 61.8818 179.902 62.0778 179.643 62.4697C179.383 62.8571 179.253 63.502 179.253 64.4043V68H177.168V60.3574H178.761L179.041 61.335H179.157C179.39 60.9658 179.709 60.6878 180.114 60.501C180.524 60.3096 180.989 60.2139 181.509 60.2139C182.397 60.2139 183.072 60.4554 183.532 60.9385C183.993 61.417 184.223 62.1097 184.223 63.0166V68ZM189.534 61.6973C189.092 61.6973 188.746 61.8385 188.495 62.1211C188.244 62.3991 188.101 62.7956 188.064 63.3105H190.99C190.981 62.7956 190.847 62.3991 190.587 62.1211C190.327 61.8385 189.976 61.6973 189.534 61.6973ZM189.828 68.1367C188.598 68.1367 187.636 67.7972 186.943 67.1182C186.251 66.4391 185.904 65.4775 185.904 64.2334C185.904 62.9528 186.223 61.9639 186.861 61.2666C187.504 60.5648 188.39 60.2139 189.521 60.2139C190.601 60.2139 191.441 60.5215 192.043 61.1367C192.645 61.752 192.945 62.6019 192.945 63.6865V64.6982H188.017C188.039 65.2907 188.215 65.7533 188.543 66.0859C188.871 66.4186 189.331 66.585 189.924 66.585C190.384 66.585 190.819 66.5371 191.229 66.4414C191.64 66.3457 192.068 66.193 192.515 65.9834V67.5967C192.15 67.779 191.76 67.9134 191.346 68C190.931 68.0911 190.425 68.1367 189.828 68.1367ZM197.744 68.1367C195.365 68.1367 194.176 66.8311 194.176 64.2197C194.176 62.9209 194.499 61.9297 195.146 61.2461C195.794 60.5579 196.721 60.2139 197.929 60.2139C198.813 60.2139 199.606 60.387 200.308 60.7334L199.692 62.3467C199.364 62.2145 199.059 62.1074 198.776 62.0254C198.494 61.9388 198.211 61.8955 197.929 61.8955C196.844 61.8955 196.302 62.6657 196.302 64.2061C196.302 65.7008 196.844 66.4482 197.929 66.4482C198.33 66.4482 198.701 66.3958 199.043 66.291C199.385 66.1816 199.727 66.013 200.068 65.7852V67.5693C199.731 67.7835 199.389 67.9316 199.043 68.0137C198.701 68.0957 198.268 68.1367 197.744 68.1367ZM205.065 66.4756C205.43 66.4756 205.868 66.3958 206.378 66.2363V67.7881C205.858 68.0205 205.22 68.1367 204.464 68.1367C203.63 68.1367 203.021 67.9271 202.639 67.5078C202.26 67.084 202.071 66.4505 202.071 65.6074V61.9229H201.073V61.041L202.222 60.3438L202.823 58.7305H204.156V60.3574H206.296V61.9229H204.156V65.6074C204.156 65.9036 204.238 66.1224 204.402 66.2637C204.571 66.4049 204.792 66.4756 205.065 66.4756ZM217.849 68L217.261 65.3271L216.468 61.9502H216.42L215.025 68H212.783L210.609 60.3574H212.688L213.569 63.7412C213.711 64.3473 213.854 65.1836 214 66.25H214.041C214.059 65.9036 214.139 65.3545 214.28 64.6025L214.39 64.0215L215.333 60.3574H217.63L218.525 64.0215C218.544 64.1217 218.571 64.2699 218.607 64.4658C218.648 64.6618 218.687 64.8714 218.724 65.0947C218.76 65.3135 218.792 65.5299 218.819 65.7441C218.851 65.9538 218.869 66.1224 218.874 66.25H218.915C218.956 65.9219 219.029 65.473 219.134 64.9033C219.239 64.3291 219.314 63.9417 219.359 63.7412L220.275 60.3574H222.319L220.118 68H217.849ZM223.468 58.3818C223.468 57.7028 223.846 57.3633 224.603 57.3633C225.359 57.3633 225.737 57.7028 225.737 58.3818C225.737 58.7054 225.642 58.9583 225.45 59.1406C225.263 59.3184 224.981 59.4072 224.603 59.4072C223.846 59.4072 223.468 59.0654 223.468 58.3818ZM225.642 68H223.557V60.3574H225.642V68ZM231.056 66.4756C231.42 66.4756 231.858 66.3958 232.368 66.2363V67.7881C231.849 68.0205 231.211 68.1367 230.454 68.1367C229.62 68.1367 229.012 67.9271 228.629 67.5078C228.251 67.084 228.062 66.4505 228.062 65.6074V61.9229H227.063V61.041L228.212 60.3438L228.813 58.7305H230.146V60.3574H232.286V61.9229H230.146V65.6074C230.146 65.9036 230.229 66.1224 230.393 66.2637C230.561 66.4049 230.782 66.4756 231.056 66.4756ZM240.975 68H238.89V63.5361C238.89 62.4333 238.479 61.8818 237.659 61.8818C237.076 61.8818 236.654 62.0801 236.395 62.4766C236.135 62.873 236.005 63.5156 236.005 64.4043V68H233.92V57.3633H236.005V59.5303C236.005 59.6989 235.989 60.0954 235.957 60.7197L235.909 61.335H236.019C236.483 60.5876 237.222 60.2139 238.233 60.2139C239.131 60.2139 239.812 60.4554 240.277 60.9385C240.742 61.4215 240.975 62.1143 240.975 63.0166V68ZM250.955 68.1367C250.057 68.1367 249.353 67.8109 248.843 67.1592H248.733C248.806 67.7972 248.843 68.1663 248.843 68.2666V71.3633H246.758V60.3574H248.453L248.747 61.3486H248.843C249.33 60.5921 250.053 60.2139 251.01 60.2139C251.912 60.2139 252.618 60.5625 253.129 61.2598C253.639 61.957 253.895 62.9255 253.895 64.165C253.895 64.9808 253.774 65.6895 253.532 66.291C253.295 66.8926 252.956 67.3506 252.514 67.665C252.072 67.9795 251.552 68.1367 250.955 68.1367ZM250.34 61.8818C249.825 61.8818 249.449 62.0413 249.212 62.3604C248.975 62.6748 248.852 63.1966 248.843 63.9258V64.1514C248.843 64.9717 248.964 65.5596 249.205 65.915C249.451 66.2705 249.839 66.4482 250.367 66.4482C251.301 66.4482 251.769 65.6781 251.769 64.1377C251.769 63.3857 251.652 62.8229 251.42 62.4492C251.192 62.071 250.832 61.8818 250.34 61.8818ZM258.782 61.6973C258.34 61.6973 257.994 61.8385 257.743 62.1211C257.493 62.3991 257.349 62.7956 257.312 63.3105H260.238C260.229 62.7956 260.095 62.3991 259.835 62.1211C259.575 61.8385 259.224 61.6973 258.782 61.6973ZM259.076 68.1367C257.846 68.1367 256.884 67.7972 256.191 67.1182C255.499 66.4391 255.152 65.4775 255.152 64.2334C255.152 62.9528 255.471 61.9639 256.109 61.2666C256.752 60.5648 257.638 60.2139 258.769 60.2139C259.849 60.2139 260.689 60.5215 261.291 61.1367C261.893 61.752 262.193 62.6019 262.193 63.6865V64.6982H257.265C257.287 65.2907 257.463 65.7533 257.791 66.0859C258.119 66.4186 258.579 66.585 259.172 66.585C259.632 66.585 260.067 66.5371 260.478 66.4414C260.888 66.3457 261.316 66.193 261.763 65.9834V67.5967C261.398 67.779 261.008 67.9134 260.594 68C260.179 68.0911 259.673 68.1367 259.076 68.1367ZM265.55 64.165C265.55 64.9215 265.673 65.4935 265.919 65.8809C266.17 66.2682 266.575 66.4619 267.136 66.4619C267.692 66.4619 268.09 66.2705 268.332 65.8877C268.578 65.5003 268.701 64.9261 268.701 64.165C268.701 63.4085 268.578 62.8411 268.332 62.4629C268.086 62.0846 267.683 61.8955 267.122 61.8955C266.566 61.8955 266.165 62.0846 265.919 62.4629C265.673 62.8366 265.55 63.404 265.55 64.165ZM270.834 64.165C270.834 65.4092 270.506 66.3822 269.85 67.084C269.193 67.7858 268.28 68.1367 267.108 68.1367C266.375 68.1367 265.728 67.9772 265.167 67.6582C264.606 67.3346 264.176 66.8721 263.875 66.2705C263.574 65.6689 263.424 64.9671 263.424 64.165C263.424 62.9163 263.75 61.9456 264.401 61.2529C265.053 60.5602 265.969 60.2139 267.149 60.2139C267.883 60.2139 268.53 60.3734 269.091 60.6924C269.651 61.0114 270.082 61.4694 270.383 62.0664C270.684 62.6634 270.834 63.363 270.834 64.165ZM276.754 68.1367C275.856 68.1367 275.152 67.8109 274.642 67.1592H274.532C274.605 67.7972 274.642 68.1663 274.642 68.2666V71.3633H272.557V60.3574H274.252L274.546 61.3486H274.642C275.129 60.5921 275.852 60.2139 276.809 60.2139C277.711 60.2139 278.417 60.5625 278.928 61.2598C279.438 61.957 279.693 62.9255 279.693 64.165C279.693 64.9808 279.573 65.6895 279.331 66.291C279.094 66.8926 278.755 67.3506 278.312 67.665C277.87 67.9795 277.351 68.1367 276.754 68.1367ZM276.139 61.8818C275.624 61.8818 275.248 62.0413 275.011 62.3604C274.774 62.6748 274.651 63.1966 274.642 63.9258V64.1514C274.642 64.9717 274.762 65.5596 275.004 65.915C275.25 66.2705 275.637 66.4482 276.166 66.4482C277.1 66.4482 277.567 65.6781 277.567 64.1377C277.567 63.3857 277.451 62.8229 277.219 62.4492C276.991 62.071 276.631 61.8818 276.139 61.8818ZM283.501 68H281.416V57.3633H283.501V68ZM288.86 61.6973C288.418 61.6973 288.072 61.8385 287.821 62.1211C287.571 62.3991 287.427 62.7956 287.391 63.3105H290.316C290.307 62.7956 290.173 62.3991 289.913 62.1211C289.653 61.8385 289.302 61.6973 288.86 61.6973ZM289.154 68.1367C287.924 68.1367 286.962 67.7972 286.27 67.1182C285.577 66.4391 285.23 65.4775 285.23 64.2334C285.23 62.9528 285.549 61.9639 286.188 61.2666C286.83 60.5648 287.716 60.2139 288.847 60.2139C289.927 60.2139 290.768 60.5215 291.369 61.1367C291.971 61.752 292.271 62.6019 292.271 63.6865V64.6982H287.343C287.366 65.2907 287.541 65.7533 287.869 66.0859C288.197 66.4186 288.658 66.585 289.25 66.585C289.71 66.585 290.146 66.5371 290.556 66.4414C290.966 66.3457 291.394 66.193 291.841 65.9834V67.5967C291.476 67.779 291.087 67.9134 290.672 68C290.257 68.0911 289.751 68.1367 289.154 68.1367Z" fill="#222222"/>
</g>
<defs>
<filter id="filter0_d_28_3583" x="34.5996" y="17.8008" width="16.2959" height="14.7632" filterUnits="userSpaceOnUse" color-interpolation-filters="sRGB">
<feFlood flood-opacity="0" result="BackgroundImageFix"/>
<feColorMatrix in="SourceAlpha" type="matrix" values="0 0 0 0 0 0 0 0 0 0 0 0 0 0 0 0 0 0 127 0" result="hardAlpha"/>
<feOffset/>
<feGaussianBlur stdDeviation="2"/>
<feComposite in2="hardAlpha" operator="out"/>
<feColorMatrix type="matrix" values="0 0 0 0 1 0 0 0 0 0.811765 0 0 0 0 0.145098 0 0 0 0.58 0"/>
<feBlend mode="normal" in2="BackgroundImageFix" result="effect1_dropShadow_28_3583"/>
<feBlend mode="normal" in="SourceGraphic" in2="effect1_dropShadow_28_3583" result="shape"/>
</filter>
<linearGradient id="paint0_linear_28_3583" x1="167.5" y1="0" x2="167.5" y2="121" gradientUnits="userSpaceOnUse">
<stop stop-color="white"/>
<stop offset="1" stop-color="#F8F8F8"/>
</linearGradient>
<linearGradient id="paint1_linear_28_3583" x1="167.5" y1="0" x2="167.5" y2="121" gradientUnits="userSpaceOnUse">
<stop stop-color="white"/>
<stop offset="1" stop-color="#F8F8F8"/>
</linearGradient>
<linearGradient id="paint2_linear_28_3583" x1="33" y1="16" x2="114.5" y2="92" gradientUnits="userSpaceOnUse">
<stop stop-color="#4D4D4D"/>
<stop offset="1" stop-color="#222222"/>
</linearGradient>
<linearGradient id="paint3_linear_28_3583" x1="33" y1="16" x2="114.5" y2="92" gradientUnits="userSpaceOnUse">
<stop stop-color="#4D4D4D"/>
<stop offset="1" stop-color="#222222"/>
</linearGradient>
<linearGradient id="paint4_linear_28_3583" x1="32.0001" y1="36.0001" x2="32.0001" y2="90.0001" gradientUnits="userSpaceOnUse">
<stop stop-color="white" stop-opacity="0.28"/>
<stop offset="1" stop-color="white" stop-opacity="0"/>
</linearGradient>
<linearGradient id="paint5_linear_28_3583" x1="113.883" y1="9.88245" x2="113.883" y2="63.8825" gradientUnits="userSpaceOnUse">
<stop stop-color="white" stop-opacity="0.28"/>
<stop offset="1" stop-color="white" stop-opacity="0"/>
</linearGradient>
<linearGradient id="paint6_linear_28_3583" x1="38.9995" y1="22" x2="48.9995" y2="31.5" gradientUnits="userSpaceOnUse">
<stop stop-color="#FFD643"/>
<stop offset="1" stop-color="#FFC700"/>
</linearGradient>
</defs>
</svg>
